<svg width="64" height="64" viewBox="0 0 64 64" fill="none" xmlns="http://www.w3.org/2000/svg">
<g clip-path="url(#clip0_4_3)">
<path d="M14.0091 43.3624C13.4233 43.9482 13.4233 44.8979 14.0091 45.4837C14.5949 46.0695 15.5446 46.0695 16.1304 45.4837L14.0091 43.3624ZM47.3319 12.1609L46.2723 11.0992L46.2713 11.1002L47.3319 12.1609ZM51.1756 19.9404L51.1756 21.4404L51.2596 21.4404L51.343 21.431L51.1756 19.9404ZM13.3015 18.4404C12.473 18.4404 11.8015 19.1119 11.8015 19.9404C11.8015 20.7688 12.473 21.4404 13.3015 21.4404L13.3015 18.4404ZM16.1304 45.4837L48.3926 13.2215L46.2713 11.1002L14.0091 43.3624L16.1304 45.4837ZM48.3916 13.2225C49.6878 11.9288 50.794 11.7899 51.5903 11.9884C52.4763 12.2093 53.3245 12.9345 53.8394 13.942C54.3558 14.9526 54.4151 16.0021 54.0704 16.7617C53.7625 17.4404 52.9738 18.229 51.0082 18.4497L51.343 21.431C54.0723 21.1245 55.9506 19.8784 56.8023 18.0014C57.6173 16.2053 57.329 14.178 56.5108 12.5769C55.6911 10.9729 54.2179 9.55163 52.316 9.07752C50.3244 8.58107 48.1764 9.19871 46.2723 11.0992L48.3916 13.2225ZM51.1756 18.4404L13.3015 18.4404L13.3015 21.4404L51.1756 21.4404L51.1756 18.4404Z" fill="black"/>
<path d="M14.1963 22.9837C13.6105 22.3979 13.6105 21.4482 14.1963 20.8624C14.7821 20.2766 15.7319 20.2766 16.3177 20.8624L14.1963 22.9837ZM47.2875 53.9535L46.2278 55.0152L46.2268 55.0142L47.2875 53.9535ZM51.1311 46.174L51.1311 44.674L51.2151 44.674L51.2985 44.6834L51.1311 46.174ZM13.257 47.674C12.4286 47.674 11.757 47.0025 11.757 46.174C11.757 45.3456 12.4286 44.674 13.257 44.674L13.257 47.674ZM16.3177 20.8624L48.3482 52.8929L46.2268 55.0142L14.1963 22.9837L16.3177 20.8624ZM48.3472 52.8919C49.6433 54.1856 50.7495 54.3245 51.5459 54.126C52.4318 53.9051 53.28 53.18 53.7949 52.1724C54.3113 51.1618 54.3707 50.1123 54.026 49.3527C53.718 48.674 52.9293 47.8854 50.9637 47.6647L51.2985 44.6834C54.0278 44.9899 55.9062 46.236 56.7579 48.113C57.5729 49.9091 57.2845 51.9364 56.4663 53.5375C55.6467 55.1415 54.1734 56.5628 52.2715 57.0369C50.28 57.5333 48.1319 56.9157 46.2278 55.0152L48.3472 52.8919ZM51.1311 47.674L13.257 47.674L13.257 44.674L51.1311 44.674L51.1311 47.674Z" fill="black"/>
<path d="M13.8319 33.423H39.8319" stroke="black" stroke-width="3" stroke-linecap="round"/>
</g>
<defs>
<clipPath id="clip0_4_3">
<rect width="64" height="64" fill="white"/>
</clipPath>
</defs>
</svg>
